<svg width="154" height="57" viewBox="0 0 154 57" fill="none" xmlns="http://www.w3.org/2000/svg">
<path d="M30 0.157959H153.5V32.658L0 56.158L30 0.157959Z" fill="#DB3138"/>
<path d="M32.4939 22.008H29.6619V30H26.9259V13.2H29.6619V19.656H32.4939V13.2H35.2299V30H32.4939V22.008ZM46.9183 30H44.0863L43.6063 26.904H40.6783L40.1983 30H37.3663L40.4623 13.2H43.8223L46.9183 30ZM40.9903 24.552H43.2943L42.1663 17.856H42.1183L40.9903 24.552ZM62.2603 30H49.0603V13.2H51.7963V27.648H54.2923V13.2H57.0283V27.648H59.5243V13.2H62.2603V30ZM73.4471 30H70.7111V21.648L70.8071 20.424L67.8791 26.952V30H65.1431V13.2H67.8791V20.928L67.7831 22.296L70.7111 15.768V13.2H73.4471V30ZM82.6011 30V27.648H84.0171C84.6571 27.648 85.1451 27.448 85.4811 27.048C85.5451 26.968 85.6011 26.888 85.6491 26.808C85.6971 26.728 85.7371 26.656 85.7691 26.592C85.8011 26.512 85.8251 26.432 85.8411 26.352C85.8731 26.272 85.8891 26.2 85.8891 26.136C85.9051 26.072 85.9051 26 85.8891 25.92C85.8891 25.824 85.8891 25.752 85.8891 25.704C85.8891 25.656 85.8731 25.592 85.8411 25.512C85.8251 25.416 85.8091 25.352 85.7931 25.32C85.7931 25.272 85.7771 25.208 85.7451 25.128C85.7131 25.032 85.6971 24.968 85.6971 24.936L82.4091 13.2H85.2411L87.0411 21.456L88.3131 13.2H91.1451L88.3611 26.856C88.1371 28.008 87.5771 28.88 86.6811 29.472C86.0891 29.856 85.3451 30.048 84.4491 30.048C84.0811 30.048 83.4651 30.032 82.6011 30ZM101.49 23.664V26.496C101.49 27.632 101.154 28.52 100.482 29.16C99.7136 29.88 98.6896 30.24 97.4096 30.24C96.1776 30.24 95.1696 29.88 94.3856 29.16C93.9056 28.728 93.5936 28.264 93.4496 27.768C93.3056 27.256 93.2336 26.664 93.2336 25.992V16.776C93.2336 15.624 93.6096 14.704 94.3616 14.016C95.1296 13.312 96.1296 12.96 97.3616 12.96C98.5296 12.96 99.4816 13.288 100.218 13.944C101.034 14.664 101.442 15.688 101.442 17.016V18.864H98.7056V16.8C98.7056 16.304 98.5936 15.936 98.3696 15.696C98.1296 15.44 97.8016 15.312 97.3856 15.312C96.9696 15.312 96.6336 15.424 96.3776 15.648C96.1056 15.888 95.9696 16.296 95.9696 16.872V26.304C95.9696 26.848 96.0816 27.24 96.3056 27.48C96.5776 27.752 96.9536 27.888 97.4336 27.888C97.9136 27.888 98.2656 27.744 98.4896 27.456C98.6656 27.232 98.7536 26.888 98.7536 26.424V23.664H101.49ZM113.186 30H110.45V15.552H108.17V21.12C108.17 22.672 108.162 23.76 108.146 24.384C108.13 24.992 108.05 25.744 107.906 26.64C107.762 27.52 107.53 28.2 107.21 28.68C106.634 29.56 105.698 30 104.402 30H103.394V27.648C104.018 27.696 104.506 27.52 104.858 27.12C105.226 26.704 105.41 25.352 105.41 23.064V13.2H113.186V30ZM115.545 30V27.648H116.961C117.601 27.648 118.089 27.448 118.425 27.048C118.489 26.968 118.545 26.888 118.593 26.808C118.641 26.728 118.681 26.656 118.713 26.592C118.745 26.512 118.769 26.432 118.785 26.352C118.817 26.272 118.833 26.2 118.833 26.136C118.849 26.072 118.849 26 118.833 25.92C118.833 25.824 118.833 25.752 118.833 25.704C118.833 25.656 118.817 25.592 118.785 25.512C118.769 25.416 118.753 25.352 118.737 25.32C118.737 25.272 118.721 25.208 118.689 25.128C118.657 25.032 118.641 24.968 118.641 24.936L115.353 13.2H118.185L119.985 21.456L121.257 13.2H124.089L121.305 26.856C121.081 28.008 120.521 28.88 119.625 29.472C119.033 29.856 118.289 30.048 117.393 30.048C117.025 30.048 116.409 30.032 115.545 30ZM128.985 30H126.249V13.2H133.641V15.552H128.985V30ZM144.074 30H141.338V21.648L141.434 20.424L138.506 26.952V30H135.77V13.2H138.506V20.928L138.41 22.296L141.338 15.768V13.2H144.074V30Z" fill="white"/>
</svg>
